PathFileType  4	(X/Y/Z) C:\Users\antoi\Documents\MyRepositories\mobilecap\ResultsAnalysis
DataRate	CameraRate	NumFrames	NumMarkers	Units	OrigDataRate	OrigDataStartFrame	OrigNumFrames
100.0	100.0	4	51	mm	100.0	22	171
Frame#	Time	r_knee			r_shank_antsup			r_ankle			r_calc			r_5meta			r_toe			L_knee			L_shank_antsup			L_ankle			L_calc			L_5meta			L_toe			r_sh2			r_sh3			r_sh4			L_sh2			L_sh3			r_thigh1			r_thigh2			r_thigh3			r_thigh4			r_thigh5			L_thigh1			L_thigh2			L_thigh3			L_thigh4			r.ASIS			r.PSIS			L.ASIS			L.PSIS			C7			R_Shoulder			L_Shoulder			R_Sternum			L_Sternum			R_humerus			R_elbow_med			R_elbow_lat			R_forearm			R_wrist_radius			R_wrist_ulna			L_humerus			L_elbow_med			L_elbow_lat			L_forearm			L_wrist_radius			L_wrist_ulna			R_HJC			L_HJC			R_HJC_reg			L_HJC_reg			
		X1	Y1	Z1	X2	Y2	Z2	X3	Y3	Z3	X4	Y4	Z4	X5	Y5	Z5	X6	Y6	Z6	X7	Y7	Z7	X8	Y8	Z8	X9	Y9	Z9	X10	Y10	Z10	X11	Y11	Z11	X12	Y12	Z12	X13	Y13	Z13	X14	Y14	Z14	X15	Y15	Z15	X16	Y16	Z16	X17	Y17	Z17	X18	Y18	Z18	X19	Y19	Z19	X20	Y20	Z20	X21	Y21	Z21	X22	Y22	Z22	X23	Y23	Z23	X24	Y24	Z24	X25	Y25	Z25	X26	Y26	Z26	X27	Y27	Z27	X28	Y28	Z28	X29	Y29	Z29	X30	Y30	Z30	X31	Y31	Z31	X32	Y32	Z32	X33	Y33	Z33	X34	Y34	Z34	X35	Y35	Z35	X36	Y36	Z36	X37	Y37	Z37	X38	Y38	Z38	X39	Y39	Z39	X40	Y40	Z40	X41	Y41	Z41	X42	Y42	Z42	X43	Y43	Z43	X44	Y44	Z44	X45	Y45	Z45	X46	Y46	Z46	X47	Y47	Z47	X48	Y48	Z48	X49	Y49	Z49	X50	Y50	Z50	X51	Y51	Z51	

22	0.21000000	186.61407	605.26940	-116.60922	218.20960	456.49073	-128.60071	164.03833	94.25534	-155.11494	110.24711	76.05640	-219.95110	304.39295	38.92344	-131.81294	344.21346	67.09151	-180.73479	196.94000	617.88361	-437.70064	115.96788	438.20095	-413.60822	-159.34851	293.21651	-378.04409	-204.62392	316.75810	-302.63429	-146.38180	132.15546	-420.22376	-85.28017	117.48548	-375.13852	219.68830	344.24814	-141.53869	154.08225	448.78534	-87.80323	151.17958	335.52265	-93.86618	64.01677	496.61916	-454.76316	-24.58957	423.13131	-429.33753	185.22185	896.53197	-71.65856	218.27339	789.57099	-82.59233	161.31504	751.30251	-74.49335	78.13434	871.58129	-94.12334	107.42934	757.03717	-94.11612	203.97654	915.50754	-444.96452	234.17966	784.29019	-449.34329	94.98842	895.53176	-441.20294	127.02922	761.75724	-449.63922	205.71049	1174.46312	-131.21550	4.24196	1206.01512	-188.70212	155.87737	1171.55274	-406.15931	-10.37857	1207.25216	-280.60515	92.19177	1692.82776	-204.06893	174.32288	1606.88037	-49.77359	134.40406	1679.41308	-391.10520	221.30641	1585.25145	-204.91308	219.49762	1595.43521	-260.28472	111.14244	1342.41869	6.07483	-6.91383	1254.08002	-21.57621	16.25020	1269.02327	48.84646	97.54848	1066.49986	54.40194	128.03041	976.31097	44.41088	96.60074	972.76764	69.10200	91.44501	1393.52171	-483.53950	-12.37093	1334.67745	-446.98344	14.97084	1329.81833	-517.55708	82.21380	1133.67160	-546.00476	105.16528	1056.70967	-538.25762	82.06996	1061.15843	-564.63311	121.19841	1079.32095	-157.21235	80.87333	1081.49973	-350.51488	127.35771	1086.91656	-160.57021	98.38498	1089.36478	-342.69013	
23	0.22000000	189.13049	605.37654	-116.55564	220.04487	456.50411	-128.78147	164.33522	94.54757	-155.35066	110.44503	76.13531	-220.24074	304.49497	39.00159	-131.86506	344.41421	66.92792	-180.86921	216.08786	622.36575	-436.73252	139.76579	440.14230	-413.55230	-131.29263	287.38865	-378.65556	-177.71959	308.97275	-303.26579	-112.21896	126.97888	-421.01707	-50.49035	114.76882	-376.03900	221.15693	344.24461	-141.81588	155.90992	448.95291	-87.95886	152.66482	335.73812	-94.09075	86.57389	497.42807	-454.69231	-0.16191	421.46423	-429.43231	191.33322	896.52927	-71.21147	223.08764	789.12580	-81.90066	165.41556	752.02548	-74.19050	84.18893	873.19338	-94.30790	111.74471	758.18658	-94.18427	217.96421	919.77733	-444.31913	250.78892	789.16940	-448.41451	109.54833	897.78961	-442.27432	144.16548	764.63353	-450.02376	215.15120	1175.37830	-130.60406	13.74459	1207.28164	-188.16506	165.44517	1173.37109	-405.44371	-0.99948	1208.72434	-280.14711	101.85247	1694.01461	-202.29242	184.28779	1607.75799	-48.64373	143.40813	1681.46522	-389.51118	230.90114	1586.58500	-203.89762	228.76892	1596.76605	-259.23580	122.82839	1343.02018	7.52207	5.15184	1253.88894	-19.60193	28.54873	1269.08139	50.77414	111.69319	1067.26426	55.99782	142.53769	977.24722	45.78666	111.64822	973.54954	70.68181	100.00890	1395.87576	-482.44899	-3.76429	1336.92362	-445.58639	23.43504	1332.10075	-516.25878	92.40014	1136.61811	-544.39148	115.83313	1059.81584	-536.79756	92.52625	1063.96201	-562.93941	130.53936	1080.39156	-156.93596	90.36720	1083.16641	-350.26246	136.87351	1088.17442	-160.06039	107.70202	1091.02475	-342.05306	
24	0.23000000	191.59606	605.45041	-116.50468	221.87809	456.48721	-129.03966	164.65033	94.84160	-155.63768	110.59110	76.17463	-220.56176	304.59066	39.12969	-131.93111	344.61160	66.78715	-181.01555	234.60862	626.73694	-435.66609	163.30189	441.92807	-413.47293	-102.73300	280.71830	-379.27084	-150.40840	300.12868	-303.99941	-76.97440	121.24093	-421.77302	-14.80741	111.80601	-376.79783	222.63452	344.21181	-142.18939	157.77260	449.05714	-88.11176	154.24672	335.89849	-94.29922	108.79722	497.91065	-454.61459	24.24258	419.30779	-429.47824	197.47740	896.44035	-70.89346	227.66806	788.57329	-81.14534	169.34042	752.72811	-73.83394	90.16748	874.71157	-94.47997	115.96177	759.25249	-94.25370	231.65285	923.83103	-443.58515	266.98755	793.86522	-447.35833	123.84564	899.92801	-443.15371	160.88299	767.42599	-450.34371	224.45947	1176.10298	-129.95542	23.12915	1208.38007	-187.71263	174.97884	1174.94620	-404.68747	8.34636	1209.99150	-279.75109	111.45901	1695.02043	-200.66553	194.11887	1608.50200	-47.57005	152.44317	1683.23305	-388.03815	240.44997	1587.73245	-202.91490	238.12460	1597.95327	-258.20565	134.34431	1343.51515	8.93444	17.07390	1253.58249	-17.69389	40.66475	1269.02468	52.63506	125.69041	1067.95307	57.57834	156.96456	978.14006	47.16578	126.55939	974.27743	72.24672	108.57550	1397.93739	-481.44646	4.82638	1338.87902	-444.34503	31.90473	1334.09880	-515.09551	102.55844	1139.28817	-542.88401	126.51941	1062.68905	-535.46511	102.93275	1066.46514	-561.33905	139.74170	1081.27990	-156.63516	99.81242	1084.60876	-350.00338	146.20139	1089.27654	-159.52811	116.99089	1092.45641	-341.40707	
25	0.24000000	194.04255	605.46884	-116.48480	223.72287	456.41894	-129.36735	164.96685	95.13659	-155.98875	110.66575	76.17885	-220.91240	304.67286	39.30039	-132.01441	344.80417	66.66748	-181.17825	252.53927	630.94306	-434.54678	186.61779	443.57866	-413.39095	-73.65037	273.29976	-379.90300	-122.57793	290.33574	-304.82898	-40.74798	115.06699	-422.48498	21.67289	108.67897	-377.44710	224.11558	344.13329	-142.65110	159.66562	449.09747	-88.28780	155.87882	335.99992	-94.52569	130.70053	498.07444	-454.51084	48.67366	416.68033	-429.50024	203.68382	896.26989	-70.67919	232.12560	787.92635	-80.47024	173.22798	753.33828	-73.46204	96.11445	876.09404	-94.55832	120.19540	760.20405	-94.28976	245.00664	927.64157	-442.76968	282.73691	798.34129	-446.17322	137.82796	901.91213	-443.76459	177.14021	770.10170	-450.58695	233.66401	1176.64376	-129.27392	32.40326	1209.30212	-187.32321	184.47054	1176.26582	-403.90420	17.68332	1211.01893	-279.37519	121.01673	1695.84514	-199.19468	203.83370	1609.09898	-46.56159	161.52520	1684.70290	-386.69536	249.96303	1588.68335	-201.96506	247.55095	1598.97181	-257.20926	145.69479	1343.89486	10.30531	28.85466	1253.15290	-15.84533	52.59423	1268.84130	54.42703	139.52547	1068.56067	59.13647	171.37737	978.99958	48.55859	141.31747	974.94075	73.79056	117.15538	1399.69279	-480.53154	13.43026	1340.52391	-443.25363	40.40112	1335.79701	-514.06555	112.69442	1141.63960	-541.49857	137.23007	1065.29898	-534.25239	113.32530	1068.64705	-559.84459	148.84585	1081.98266	-156.29715	109.21871	1085.80776	-349.71886	155.33883	1090.24429	-158.96102	126.27311	1093.63013	-340.75511	
